<?xml version="1.0" encoding="UTF-8" standalone="no"?>
<svg
   viewBox="0 0 16 16"
   version="1.1"
   id="svg1"
   sodipodi:docname="brain.svg"
   width="16"
   height="16"
   inkscape:version="1.3.2 (091e20e, 2023-11-25, custom)"
   xmlns:inkscape="http://www.inkscape.org/namespaces/inkscape"
   xmlns:sodipodi="http://sodipodi.sourceforge.net/DTD/sodipodi-0.dtd"
   xmlns="http://www.w3.org/2000/svg"
   xmlns:svg="http://www.w3.org/2000/svg">
  <defs
     id="defs1" />
  <sodipodi:namedview
     id="namedview1"
     pagecolor="#505050"
     bordercolor="#ffffff"
     borderopacity="1"
     inkscape:showpageshadow="0"
     inkscape:pageopacity="0"
     inkscape:pagecheckerboard="1"
     inkscape:deskcolor="#505050"
     inkscape:zoom="15.65625"
     inkscape:cx="9.3572854"
     inkscape:cy="12.359281"
     inkscape:window-width="1366"
     inkscape:window-height="697"
     inkscape:window-x="-8"
     inkscape:window-y="-8"
     inkscape:window-maximized="1"
     inkscape:current-layer="svg1" />
  <!--!Font Awesome Free 6.5.1 by @fontawesome - https://fontawesome.com License - https://fontawesome.com/license/free Copyright 2024 Fonticons, Inc.-->
  <path
     d="M 5.75,0 C 6.715625,0 7.5,0.784375 7.5,1.75 v 12.5 C 7.5,15.215625 6.715625,16 5.75,16 4.846875,16 4.103125,15.315625 4.009375,14.434375 3.846875,14.478125 3.675,14.5 3.5,14.5 c -1.103125,0 -2,-0.896875 -2,-2 0,-0.23125 0.040625,-0.45625 0.1125,-0.6625 C 0.66875,11.48125 0,10.56875 0,9.5 0,8.503125 0.584375,7.640625 1.43125,7.240625 1.159375,6.9 1,6.46875 1,6 1,5.040625 1.675,4.240625 2.575,4.04375 2.525,3.871875 2.5,3.6875 2.5,3.5 2.5,2.565625 3.14375,1.778125 4.009375,1.559375 4.103125,0.684375 4.846875,0 5.75,0 Z m 4.5,0 c 0.903125,0 1.64375,0.684375 1.740625,1.559375 C 12.859375,1.778125 13.5,2.5625 13.5,3.5 13.5,3.6875 13.475,3.871875 13.425,4.04375 14.325,4.2375 15,5.040625 15,6 15,6.46875 14.840625,6.9 14.56875,7.240625 15.415625,7.640625 16,8.503125 16,9.5 c 0,1.06875 -0.66875,1.98125 -1.6125,2.3375 0.07188,0.20625 0.1125,0.43125 0.1125,0.6625 0,1.103125 -0.896875,2 -2,2 -0.175,0 -0.346875,-0.02187 -0.509375,-0.06563 C 11.896875,15.315625 11.153125,16 10.25,16 9.284375,16 8.5,15.215625 8.5,14.25 V 1.75 C 8.5,0.784375 9.284375,0 10.25,0 Z"
     id="path1"
     style="fill:#e0e0e0;fill-opacity:1;stroke-width:0.0312501" />
</svg>
