<?xml version="1.0" encoding="UTF-8" standalone="no"?>
<svg
   viewBox="0 0 16 16"
   version="1.1"
   id="svg1"
   sodipodi:docname="gem_2d.svg"
   width="16"
   height="16"
   inkscape:version="1.3.2 (091e20e, 2023-11-25, custom)"
   xmlns:inkscape="http://www.inkscape.org/namespaces/inkscape"
   xmlns:sodipodi="http://sodipodi.sourceforge.net/DTD/sodipodi-0.dtd"
   xmlns="http://www.w3.org/2000/svg"
   xmlns:svg="http://www.w3.org/2000/svg">
  <defs
     id="defs1" />
  <sodipodi:namedview
     id="namedview1"
     pagecolor="#505050"
     bordercolor="#ffffff"
     borderopacity="1"
     inkscape:showpageshadow="0"
     inkscape:pageopacity="0"
     inkscape:pagecheckerboard="1"
     inkscape:deskcolor="#505050"
     inkscape:zoom="22.141281"
     inkscape:cx="12.081505"
     inkscape:cy="5.5326519"
     inkscape:window-width="1366"
     inkscape:window-height="697"
     inkscape:window-x="-8"
     inkscape:window-y="-8"
     inkscape:window-maximized="1"
     inkscape:current-layer="svg1" />
  <!--!Font Awesome Free 6.5.1 by @fontawesome - https://fontawesome.com License - https://fontawesome.com/license/free Copyright 2024 Fonticons, Inc.-->
  <path
     d="M 4.1914688,2.26797 C 4.3145163,2.10117 4.5113922,2 4.7192058,2 h 6.5625322 c 0.207814,0 0.404689,0.0984 0.527737,0.26797 l 3.062515,4.15627 c 0.185938,0.25156 0.166798,0.59883 -0.04101,0.83125 l -6.3437816,7.00004 c -0.1230475,0.13672 -0.3007827,0.21602 -0.4867211,0.21602 -0.1859385,0 -0.3609392,-0.0793 -0.4867211,-0.21602 L 1.1699695,7.25549 C 0.95942164,7.02307 0.94301531,6.6758 1.1289535,6.42424 Z m 0.643108,0.5567184 C 4.7309246,2.903259 4.702656,3.0445481 4.7686166,3.1544894 L 6.5715338,6.1572513 1.948025,6.5435909 c -0.1287798,0.00919 -0.2292908,0.1193606 -0.2292908,0.2512764 0,0.1319273 0.1005106,0.2387212 0.2292908,0.2512764 l 6.0306638,0.5025644 h 0.040832 L 14.050185,7.0461437 c 0.12878,-0.00919 0.22929,-0.1193491 0.22929,-0.2512764 0,-0.1319158 -0.10051,-0.2387097 -0.22929,-0.2512764 L 9.4298168,6.1603987 11.232734,3.1576254 c 0.06597,-0.1099299 0.03769,-0.2544124 -0.06597,-0.329801 -0.103646,-0.075354 -0.248137,-0.062833 -0.336083,0.031359 L 8.0006711,5.92162 5.1706565,2.8560362 C 5.0827092,2.7618435 4.9382247,2.7492079 4.8345727,2.8246769 Z"
     id="path1"
     style="fill:#8da5f3;fill-opacity:1;stroke-width:0.0273439"
     sodipodi:nodetypes="cssccccsccccccccsccccsccccccccc" />
</svg>
