<?xml version="1.0" encoding="UTF-8" standalone="no"?>
<svg
   viewBox="0 0 16 16"
   version="1.1"
   id="svg1"
   sodipodi:docname="compass_3d.svg"
   width="16"
   height="16"
   inkscape:version="1.3.2 (091e20e, 2023-11-25, custom)"
   xmlns:inkscape="http://www.inkscape.org/namespaces/inkscape"
   xmlns:sodipodi="http://sodipodi.sourceforge.net/DTD/sodipodi-0.dtd"
   xmlns="http://www.w3.org/2000/svg"
   xmlns:svg="http://www.w3.org/2000/svg">
  <defs
     id="defs1" />
  <sodipodi:namedview
     id="namedview1"
     pagecolor="#505050"
     bordercolor="#ffffff"
     borderopacity="1"
     inkscape:showpageshadow="0"
     inkscape:pageopacity="0"
     inkscape:pagecheckerboard="1"
     inkscape:deskcolor="#505050"
     inkscape:zoom="22.936776"
     inkscape:cx="6.2127301"
     inkscape:cy="11.182914"
     inkscape:window-width="1366"
     inkscape:window-height="697"
     inkscape:window-x="-8"
     inkscape:window-y="-8"
     inkscape:window-maximized="1"
     inkscape:current-layer="svg1" />
  <!--!Font Awesome Free 6.5.1 by @fontawesome - https://fontawesome.com License - https://fontawesome.com/license/free Copyright 2024 Fonticons, Inc.-->
  <path
     d="m 8,14 c 3.313711,0 5.999997,-2.686292 5.999997,-6 C 13.999997,4.6862916 11.313711,2 8,2 4.6862893,2 2.0000026,4.6862916 2.0000026,8 c 0,3.313708 2.6862867,6 5.9999974,6 z M 9.5785648,10.151456 5.0857266,11.87947 C 4.4816998,12.112986 3.8870136,11.518301 4.1205292,10.914274 L 5.848544,6.4214353 C 5.9512907,6.1567844 6.1567844,5.9512907 6.4214353,5.848544 L 10.914274,4.1205292 c 0.604027,-0.2335156 1.198712,0.3611706 0.965196,0.9651974 L 10.151456,9.5785648 C 10.051823,9.8432158 9.8432158,10.048709 9.5785648,10.151456 Z M 9.3015197,8.0000001 c 0,-1.7353587 -2.6030392,-1.7353587 -2.6030392,0 0,1.7353591 2.6030392,1.7353591 2.6030392,0 z"
     id="path1"
     style="fill:#fc7f7f;fill-opacity:1;stroke-width:0.0234375"
     sodipodi:nodetypes="ssssscccccccccsss" />
</svg>
