<?xml version="1.0" encoding="UTF-8" standalone="no"?>
<svg
   viewBox="0 0 16 16"
   version="1.1"
   id="svg1"
   sodipodi:docname="database.svg"
   width="16"
   height="16"
   inkscape:version="1.4.2 (f4327f4, 2025-05-13)"
   xmlns:inkscape="http://www.inkscape.org/namespaces/inkscape"
   xmlns:sodipodi="http://sodipodi.sourceforge.net/DTD/sodipodi-0.dtd"
   xmlns="http://www.w3.org/2000/svg"
   xmlns:svg="http://www.w3.org/2000/svg">
  <defs
     id="defs1" />
  <sodipodi:namedview
     id="namedview1"
     pagecolor="#979797"
     bordercolor="#000000"
     borderopacity="0.25"
     inkscape:showpageshadow="2"
     inkscape:pageopacity="0.0"
     inkscape:pagecheckerboard="true"
     inkscape:deskcolor="#5b5b5b"
     inkscape:zoom="35.664698"
     inkscape:cx="4.45819"
     inkscape:cy="7.892959"
     inkscape:window-width="1920"
     inkscape:window-height="1009"
     inkscape:window-x="-8"
     inkscape:window-y="-8"
     inkscape:window-maximized="1"
     inkscape:current-layer="svg1" />
  <!--!Font Awesome Free 6.7.2 by @fontawesome - https://fontawesome.com License - https://fontawesome.com/license/free Copyright 2025 Fonticons, Inc.-->
  <path
     d="M 14.125,3.1875 V 4.5 C 14.125,5.7085937 11.382422,6.6875 8,6.6875 4.6175781,6.6875 1.875,5.7085937 1.875,4.5 V 3.1875 C 1.875,1.9789063 4.6175781,1 8,1 c 3.382422,0 6.125,0.9789063 6.125,2.1875 z M 12.626563,6.8707031 C 13.195313,6.6683594 13.717578,6.4085938 14.125,6.0886719 V 8.875 c 0,1.208594 -2.742578,2.1875 -6.125,2.1875 -3.3824219,0 -6.125,-0.978906 -6.125,-2.1875 V 6.0886719 C 2.2824219,6.4113281 2.8046875,6.6683594 3.3734375,6.8707031 4.6011719,7.3082031 6.2363281,7.5625 8,7.5625 c 1.763672,0 3.398828,-0.2542969 4.626563,-0.6917969 z M 1.875,10.463672 c 0.4074219,0.322656 0.9296875,0.579687 1.4984375,0.782031 C 4.6011719,11.683203 6.2363281,11.9375 8,11.9375 c 1.763672,0 3.398828,-0.254297 4.626563,-0.691797 0.56875,-0.202344 1.091015,-0.462109 1.498437,-0.782031 V 12.8125 C 14.125,14.021094 11.382422,15 8,15 4.6175781,15 1.875,14.021094 1.875,12.8125 Z"
     id="path1"
     style="fill:#e0e0e0;fill-opacity:1;stroke-width:0.0273438" />
</svg>
