<?xml version="1.0" encoding="UTF-8" standalone="no"?>
<svg
   viewBox="0 0 16 16"
   version="1.1"
   id="svg1"
   sodipodi:docname="day_night.svg"
   width="16"
   height="16"
   xml:space="preserve"
   inkscape:version="1.4.2 (f4327f4, 2025-05-13)"
   xmlns:inkscape="http://www.inkscape.org/namespaces/inkscape"
   xmlns:sodipodi="http://sodipodi.sourceforge.net/DTD/sodipodi-0.dtd"
   xmlns="http://www.w3.org/2000/svg"
   xmlns:svg="http://www.w3.org/2000/svg"><defs
     id="defs1" /><sodipodi:namedview
     id="namedview1"
     pagecolor="#505050"
     bordercolor="#ffffff"
     borderopacity="1"
     inkscape:showpageshadow="0"
     inkscape:pageopacity="0"
     inkscape:pagecheckerboard="1"
     inkscape:deskcolor="#505050"
     inkscape:zoom="32.4375"
     inkscape:cx="1.2947977"
     inkscape:cy="7.5375723"
     inkscape:window-width="1920"
     inkscape:window-height="1009"
     inkscape:window-x="-8"
     inkscape:window-y="-8"
     inkscape:window-maximized="1"
     inkscape:current-layer="svg1" /><!--!Font Awesome Free 6.5.1 by @fontawesome - https://fontawesome.com License - https://fontawesome.com/license/free Copyright 2024 Fonticons, Inc.--><path
     id="path7"
     style="fill:#e0e0e0;fill-opacity:1;fill-rule:evenodd;stroke:none;stroke-width:0.875221;stroke-linejoin:round;stroke-dasharray:none;stroke-opacity:1"
     d="M 13.623522,6.6765222 5.1059778,11.963366 c 0.735235,0.916461 1.7723419,1.558348 2.9328009,1.815171 2.7571693,0.604157 5.4680883,-1.078512 6.0543193,-3.757918 0.247203,-1.1293057 0.08113,-2.311987 -0.469576,-3.3440968 z M 7.9477169,1.6551127 C 7.8785042,1.6323722 7.8029259,1.627207 7.7291224,1.6400234 7.5815157,1.6656555 7.4591227,1.7623957 7.4014632,1.8960294 L 6.2389869,4.6188449 3.200214,4.5037468 C 3.05082,4.4986316 2.9089529,4.5659171 2.8232138,4.6851236 2.7374741,4.80433 2.7199173,4.9574989 2.7779786,5.0943942 L 3.9460506,7.842784 1.7363413,9.8515711 C 1.626386,9.9516751 1.5783291,10.098166 1.6064086,10.242296 c 0.02808,0.144128 0.1288475,0.264541 0.2667093,0.322324 l 2.2897076,0.949858 1.7626759,-1.094094 C 5.5879492,9.7320975 5.4911919,8.9573547 5.6501868,8.215924 6.2766686,5.4421066 9.8935629,4.5938669 11.801087,6.7734056 l 1.770892,-1.0991945 0.06669,-2.4124747 C 13.642131,3.1162355 13.571362,2.9772 13.447972,2.8922308 13.324583,2.8072622 13.167149,2.7883184 13.027327,2.8432508 L 10.22019,3.9484229 8.131747,1.7713082 C 8.07971,1.7171403 8.0169291,1.6778564 7.9477169,1.6551127 Z M 9.3557103,6.3966629 C 8.0155909,6.2644629 6.797181,7.1269756 6.5175007,8.4058321 6.4109241,8.9228646 6.4695888,9.461184 6.6856289,9.9485723 L 11.063557,7.2311907 C 10.616757,6.7587002 10.008577,6.4615169 9.3557103,6.3966629 Z"
     inkscape:transform-center-x="0.98151417"
     inkscape:transform-center-y="-1.1829232"
     sodipodi:nodetypes="ccccccscccscccscccccccsccccccccc" /></svg>
