<?xml version="1.0" encoding="UTF-8" standalone="no"?>
<svg
   height="16"
   viewBox="0 0 16 16"
   width="16"
   version="1.1"
   id="svg1"
   sodipodi:docname="group_3d.svg"
   inkscape:version="1.3.2 (091e20e, 2023-11-25, custom)"
   xmlns:inkscape="http://www.inkscape.org/namespaces/inkscape"
   xmlns:sodipodi="http://sodipodi.sourceforge.net/DTD/sodipodi-0.dtd"
   xmlns="http://www.w3.org/2000/svg"
   xmlns:svg="http://www.w3.org/2000/svg">
  <defs
     id="defs1" />
  <sodipodi:namedview
     id="namedview1"
     pagecolor="#505050"
     bordercolor="#ffffff"
     borderopacity="1"
     inkscape:showpageshadow="0"
     inkscape:pageopacity="0"
     inkscape:pagecheckerboard="1"
     inkscape:deskcolor="#505050"
     inkscape:zoom="11.468388"
     inkscape:cx="9.460789"
     inkscape:cy="13.12303"
     inkscape:window-width="1366"
     inkscape:window-height="697"
     inkscape:window-x="-8"
     inkscape:window-y="-8"
     inkscape:window-maximized="1"
     inkscape:current-layer="svg1" />
  <path
     id="path1"
     d="m 6.75,0.75 a 6,6 0 0 0 -6,6 6,6 0 0 0 6,6 6,6 0 0 0 6,-6 6,6 0 0 0 -6,-6 z m 0,2 a 4,4 0 0 1 4,4 4,4 0 0 1 -4,4 4,4 0 0 1 -4,-4 4,4 0 0 1 4,-4 z M 7.2734375,3.599609 A 6,6 0 0 0 3.5996094,7.273438 c 0.00838,0.03768 0.012143,0.04283 0.023437,0.09961 0.1221583,0.614131 -0.057982,0.01916 0.1816406,0.597656 0.2396222,0.578499 -0.054909,0.03015 0.2929687,0.550781 0.3478776,0.520636 -0.04628,0.04161 0.3964844,0.484375 0.4427641,0.442764 -0.036261,0.04861 0.484375,0.396484 C 5.3739572,9.66657 5.1570398,9.563005 5.28125,9.601563 A 4,4 0 0 1 5.25,9.25 a 4,4 0 0 1 4,-4 4,4 0 0 1 0.3476562,0.01758 C 9.5720872,5.17626 9.6548892,5.35648 9.4023438,4.978518 9.0544662,4.457882 9.4486238,4.936908 9.0058594,4.494143 8.5630953,4.051379 9.0421194,4.445533 8.5214844,4.097658 8.0008489,3.749781 8.5492024,4.044308 7.9707031,3.80469 7.392204,3.565067 7.9871781,3.74521 7.3730469,3.623049 7.3162639,3.611749 7.3111229,3.607989 7.2734375,3.599609 Z m 5.9941405,1.19336 c 0.191881,0.633834 0.292969,1.294567 0.292969,1.957031 0,0.705812 -0.116954,1.408674 -0.333985,2.080078 A 4,4 0 0 1 13.25,9.25 a 4,4 0 0 1 -4,4 4,4 0 0 1 -0.3886719,-0.0332 C 8.1805569,13.440402 7.4667503,13.560547 6.75,13.560547 c -0.6585078,0 -1.3149424,-0.101357 -1.9453125,-0.291016 A 6,6 0 0 0 9.25,15.25 a 6,6 0 0 0 6,-6 6,6 0 0 0 -1.982422,-4.457031 z"
     style="fill:#fc7f7f;fill-opacity:1" />
</svg>
