<?xml version="1.0" encoding="UTF-8" standalone="no"?>
<svg
   viewBox="0 0 16 16"
   version="1.1"
   id="svg1"
   sodipodi:docname="health_ui.svg"
   width="16"
   height="16"
   inkscape:version="1.3.2 (091e20e, 2023-11-25, custom)"
   xmlns:inkscape="http://www.inkscape.org/namespaces/inkscape"
   xmlns:sodipodi="http://sodipodi.sourceforge.net/DTD/sodipodi-0.dtd"
   xmlns="http://www.w3.org/2000/svg"
   xmlns:svg="http://www.w3.org/2000/svg">
  <defs
     id="defs1" />
  <sodipodi:namedview
     id="namedview1"
     pagecolor="#505050"
     bordercolor="#ffffff"
     borderopacity="1"
     inkscape:showpageshadow="0"
     inkscape:pageopacity="0"
     inkscape:pagecheckerboard="1"
     inkscape:deskcolor="#505050"
     inkscape:zoom="22.936776"
     inkscape:cx="2.2889006"
     inkscape:cy="5.9511415"
     inkscape:window-width="1366"
     inkscape:window-height="697"
     inkscape:window-x="-8"
     inkscape:window-y="-8"
     inkscape:window-maximized="1"
     inkscape:current-layer="svg1" />
  <!--!Font Awesome Free 6.5.1 by @fontawesome - https://fontawesome.com License - https://fontawesome.com/license/free Copyright 2024 Fonticons, Inc.-->
  <path
     d="M 1.4875,9.2702844 7.134375,14.542159 C 7.36875,14.760909 7.678125,14.882784 8,14.882784 c 0.321875,0 0.63125,-0.121875 0.865625,-0.340625 L 14.5125,9.2702844 C 15.4625,8.3859094 16,7.1452844 16,5.8484094 v -0.18125 c 0,-2.1843749 -1.578125,-4.0468749 -3.73125,-4.4062499 -1.425,-0.2375 -2.875,0.228125 -3.89375,1.246875 l -0.375,0.375 -0.375,-0.375 C 6.60625,1.4890345 5.15625,1.0234095 3.73125,1.2609095 1.578125,1.6202845 0,3.4827845 0,5.6671594 v 0.18125 c 0,1.296875 0.5375,2.5375 1.4875,3.421875 z"
     id="path1"
     style="stroke-width:0.03125;fill:#8eef97;fill-opacity:1" />
</svg>
