<?xml version="1.0" encoding="UTF-8" standalone="no"?>
<svg
   height="16"
   viewBox="0 0 16 16"
   width="16"
   version="1.1"
   id="svg1"
   sodipodi:docname="hitbox_3d.svg"
   xml:space="preserve"
   inkscape:version="1.3.2 (091e20e, 2023-11-25, custom)"
   xmlns:inkscape="http://www.inkscape.org/namespaces/inkscape"
   xmlns:sodipodi="http://sodipodi.sourceforge.net/DTD/sodipodi-0.dtd"
   xmlns="http://www.w3.org/2000/svg"
   xmlns:svg="http://www.w3.org/2000/svg"><defs
     id="defs1" /><sodipodi:namedview
     id="namedview1"
     pagecolor="#505050"
     bordercolor="#ffffff"
     borderopacity="1"
     inkscape:showpageshadow="0"
     inkscape:pageopacity="0"
     inkscape:pagecheckerboard="1"
     inkscape:deskcolor="#505050"
     inkscape:zoom="22.627417"
     inkscape:cx="3.6460193"
     inkscape:cy="10.496116"
     inkscape:window-width="1366"
     inkscape:window-height="697"
     inkscape:window-x="-8"
     inkscape:window-y="-8"
     inkscape:window-maximized="1"
     inkscape:current-layer="svg1" /><path
     id="path3"
     style="color:#000000;fill:#fc7f7f;fill-rule:evenodd;stroke-linejoin:round;-inkscape-stroke:none;fill-opacity:1"
     d="M 10.375,3.78125 C 9.5412595,3.6225422 8.7031208,3.8177184 8,4.2539062 7.2967366,3.8176827 6.4579562,3.6221624 5.6230469,3.7832031 4.0535925,4.0839628 2.90625,5.4682189 2.90625,7.0664062 v 0.052734 c 0,0.9468051 0.3951301,1.853113 1.0898438,2.4980469 l 2.8398437,2.6386719 a 1.0001,1.0001 0 0 0 0.015625,0.01367 l 0.4824219,0.429688 a 1.0001,1.0001 0 0 0 1.3320312,0 l 0.4824219,-0.429688 a 1.0001,1.0001 0 0 0 0.015625,-0.01367 L 12.003906,9.6171875 C 12.698623,8.9722531 13.09375,8.0659442 13.09375,7.1191406 V 7.0664062 C 13.09375,5.4672734 11.946799,4.0810703 10.375,3.78125 Z M 6,5.7460937 a 1.0001,1.0001 0 0 0 0.00195,0 C 6.3526929,5.6784416 6.7093633,5.7648466 7,5.9609375 v 3.71875 L 5.3554687,8.1523438 C 5.0684444,7.8858862 4.90625,7.5122482 4.90625,7.1191406 V 7.0664062 C 4.90625,6.4142354 5.35797,5.8685642 6,5.7460937 Z m 4,0 c 0.641111,0.1222918 1.09375,0.6681421 1.09375,1.3203125 v 0.052734 c 0,0.3931087 -0.162194,0.7667463 -0.449219,1.0332032 L 9,9.6796875 v -3.71875 C 9.2906921,5.764805 9.6480124,5.6790907 10,5.7460937 Z M 1,1 V 3 5 H 3 V 3 H 5 V 1 Z m 10,0 v 2 h 2 v 2 h 2 V 1 Z M 1,11 v 2 2 H 3 5 V 13 H 3 v -2 z m 12,0 v 2 h -2 v 2 h 4 v -2 -2 z" /></svg>
