<?xml version="1.0" encoding="UTF-8" standalone="no"?>
<svg
   viewBox="0 0 16 16"
   version="1.1"
   id="svg1"
   sodipodi:docname="holder.svg"
   width="16"
   height="16"
   xml:space="preserve"
   inkscape:version="1.3.2 (091e20e, 2023-11-25, custom)"
   xmlns:inkscape="http://www.inkscape.org/namespaces/inkscape"
   xmlns:sodipodi="http://sodipodi.sourceforge.net/DTD/sodipodi-0.dtd"
   xmlns="http://www.w3.org/2000/svg"
   xmlns:svg="http://www.w3.org/2000/svg"><defs
     id="defs1" /><sodipodi:namedview
     id="namedview1"
     pagecolor="#505050"
     bordercolor="#ffffff"
     borderopacity="1"
     inkscape:showpageshadow="0"
     inkscape:pageopacity="0"
     inkscape:pagecheckerboard="1"
     inkscape:deskcolor="#505050"
     inkscape:zoom="32"
     inkscape:cx="8.828125"
     inkscape:cy="7.484375"
     inkscape:window-width="1366"
     inkscape:window-height="697"
     inkscape:window-x="-8"
     inkscape:window-y="-8"
     inkscape:window-maximized="1"
     inkscape:current-layer="svg1" /><!--!Font Awesome Free 6.5.1 by @fontawesome - https://fontawesome.com License - https://fontawesome.com/license/free Copyright 2024 Fonticons, Inc.--><path
     id="path1-6"
     style="display:inline;fill:#e0e0e0;fill-opacity:1;stroke-width:0.472378"
     d="M 7.9994707,2 C 6.2321593,2 4.7994704,3.432689 4.7994704,5.2000003 c 0,1.7673108 1.4326889,3.1999998 3.2000003,3.1999998 1.7673103,0 3.2000003,-1.4326889 3.2000003,-3.1999996 C 11.199471,3.4326893 9.766782,2.0000001 7.9994707,2 Z m 1e-7,1.9270799 c 0.7030147,-10e-8 1.2729201,0.5699059 1.2729201,1.2729202 0,0.7030146 -0.569906,1.2729195 -1.2729201,1.2729195 -0.7030143,0 -1.2729199,-0.5699054 -1.2729199,-1.2729195 -6e-7,-0.7030143 0.5699056,-1.2729202 1.2729199,-1.2729202 z M 1,3.5957546 c 0.5525,0 1,0.4475 1,1 v 1 2 1.005 c 0,0.425 0.1675,0.8324997 0.4675,1.1324997 L 3.745,11.010754 c 0.2075,0.207501 0.5325,0.24 0.775,0.0775 0.3225,-0.214998 0.3675,-0.672499 0.092501,-0.944998 l -0.38,-0.3800007 -0.8,-0.8 C 3.12,8.6507546 3.12,8.1432546 3.4325,7.8307546 c 0.3125,-0.3125 0.82,-0.3125 1.1325,0 l 0.8,0.8 0.38,0.38 v 0 l 0.6325,0.6324997 c 0.525,0.5250007 0.82,1.2374997 0.82,1.9800007 v 1.972499 c 0,0.6625 -0.5375,1.2 -1.2,1.2 H 4.3325 C 3.9075,14.795754 3.5,14.628255 3.2,14.328255 L 0.7025,11.830754 C 0.2525,11.380754 0,10.770754 0,10.133255 v -2.5375004 -1.6 -1.4 c 0,-0.5525 0.4475,-1 1,-1 z m 14,0 c 0.552501,0 1,0.4475 1,1 v 1.4 1.6 2.5375004 c 0,0.637499 -0.252499,1.247499 -0.702499,1.697499 L 12.8,14.328255 c -0.3,0.3 -0.707501,0.467499 -1.132499,0.467499 H 10 c -0.6625,0 -1.2,-0.537499 -1.2,-1.2 v -1.972499 c 0,-0.742501 0.295,-1.455 0.82,-1.9800007 l 0.6325,-0.6324997 v 0 l 0.379999,-0.38 0.800002,-0.8 c 0.312499,-0.3125 0.82,-0.3125 1.132499,0 0.312501,0.3125 0.312501,0.82 0,1.1325 l -0.8,0.7999997 -0.38,0.3800007 c -0.275,0.275 -0.23,0.73 0.0925,0.944999 0.242499,0.1625 0.567499,0.130001 0.775,-0.0775 l 1.277499,-1.2774997 c 0.3,-0.3 0.4675,-0.7075004 0.4675,-1.1325004 v -1.0050023 -2 -1 c 0,-0.5525 0.4475,-1 1,-1 z"
     sodipodi:nodetypes="ssssssssssssccssccccssscccssssssssccssssccssssssssccccsscscsssccsss" /></svg>
