<?xml version="1.0" encoding="UTF-8" standalone="no"?>
<svg
   viewBox="0 0 16 16"
   version="1.1"
   id="svg1"
   sodipodi:docname="info.svg"
   width="16"
   height="16"
   inkscape:version="1.4.2 (f4327f4, 2025-05-13)"
   xml:space="preserve"
   xmlns:inkscape="http://www.inkscape.org/namespaces/inkscape"
   xmlns:sodipodi="http://sodipodi.sourceforge.net/DTD/sodipodi-0.dtd"
   xmlns="http://www.w3.org/2000/svg"
   xmlns:svg="http://www.w3.org/2000/svg"><defs
     id="defs1" /><sodipodi:namedview
     id="namedview1"
     pagecolor="#505050"
     bordercolor="#ffffff"
     borderopacity="1"
     inkscape:showpageshadow="0"
     inkscape:pageopacity="0"
     inkscape:pagecheckerboard="1"
     inkscape:deskcolor="#505050"
     inkscape:zoom="22.936776"
     inkscape:cx="0"
     inkscape:cy="9.2209995"
     inkscape:window-width="1920"
     inkscape:window-height="1009"
     inkscape:window-x="-8"
     inkscape:window-y="-8"
     inkscape:window-maximized="1"
     inkscape:current-layer="svg1"
     showguides="true" /><!--!Font Awesome Free 6.5.1 by @fontawesome - https://fontawesome.com License - https://fontawesome.com/license/free Copyright 2024 Fonticons, Inc.--><path
     d="M 13.388892,2.555552 C 13.388892,1.697562 12.691328,1 11.833338,1 H 4.055554 C 3.197578,1 2.5,1.697562 2.5,2.555552 V 13.444448 C 2.5,14.302438 3.197578,15 4.055554,15 h 7.777784 c 0.85799,0 1.555554,-0.697562 1.555554,-1.555552 z M 7.0632129,7.177988 h 1.9624667 c 1.3553274,0 2.4530944,1.0977615 2.4530944,2.4530915 0,0.2698437 -0.220778,0.4906215 -0.490627,0.4906215 H 5.1007466 c -0.2698501,0 -0.4906282,-0.2207778 -0.4906282,-0.4906215 0,-1.35533 1.0977676,-2.4530915 2.4530945,-2.4530915 z M 6.0819723,4.2342923 c -0.00556,-2.6221873 3.9305107,-2.6221873 3.9249477,0 0.0056,2.6221873 -3.9305102,2.6221873 -3.9249477,0 z M 4.1789517,11.193183 h 7.7890543 c 0.270325,0 0.491491,-0.01676 0.491491,1.327553 0,1.434296 -0.221166,1.485029 -0.491491,1.485029 H 4.1789515 c -0.2703261,0 -0.4914937,-0.02824 -0.4914937,-1.485029 0,-1.299317 0.2211676,-1.327553 0.4914939,-1.327553 z"
     id="path1"
     style="fill:#e0e0e0;fill-opacity:1;stroke-width:0.0243055"
     sodipodi:nodetypes="sssssssssssssssscccsssssss" /></svg>
