<?xml version="1.0" encoding="UTF-8" standalone="no"?>
<svg
   viewBox="0 0 16 16"
   version="1.1"
   id="svg1"
   sodipodi:docname="item.svg"
   width="16"
   height="16"
   xml:space="preserve"
   inkscape:version="1.3.2 (091e20e, 2023-11-25, custom)"
   xmlns:inkscape="http://www.inkscape.org/namespaces/inkscape"
   xmlns:sodipodi="http://sodipodi.sourceforge.net/DTD/sodipodi-0.dtd"
   xmlns="http://www.w3.org/2000/svg"
   xmlns:svg="http://www.w3.org/2000/svg"><defs
     id="defs1" /><sodipodi:namedview
     id="namedview1"
     pagecolor="#505050"
     bordercolor="#ffffff"
     borderopacity="1"
     inkscape:showpageshadow="0"
     inkscape:pageopacity="0"
     inkscape:pagecheckerboard="1"
     inkscape:deskcolor="#505050"
     inkscape:zoom="22.141281"
     inkscape:cx="3.3195911"
     inkscape:cy="10.274925"
     inkscape:window-width="1366"
     inkscape:window-height="697"
     inkscape:window-x="-8"
     inkscape:window-y="-8"
     inkscape:window-maximized="1"
     inkscape:current-layer="svg1" /><!--!Font Awesome Free 6.5.1 by @fontawesome - https://fontawesome.com License - https://fontawesome.com/license/free Copyright 2024 Fonticons, Inc.--><path
     id="path1-6"
     style="display:inline;fill:#e0e0e0;fill-opacity:1;stroke-width:0.583334"
     d="m 8.0000001,5.7983549 c -2.1824337,0 -3.9516456,1.7692124 -3.9516451,3.9516461 0,2.182433 1.7692118,3.951645 3.9516451,3.951645 2.1824329,0 3.9516449,-1.769212 3.9516449,-3.951645 0,-2.1824336 -1.769211,-3.9516459 -3.9516449,-3.9516461 z m 1e-7,1.7236955 c 1.2304631,-2e-7 2.2279498,0.9974874 2.2279498,2.2279505 0,1.2304631 -0.9974871,2.2279491 -2.2279498,2.2279491 -1.2304625,0 -2.2279496,-0.997487 -2.2279498,-2.2279491 -4e-7,-1.230463 0.9974868,-2.2279505 2.2279498,-2.2279505 z M 9.75,3.625 H 6.25 L 4.9539062,1.6808594 C 4.7597656,1.3882812 4.9675781,1 5.3175781,1 h 5.3648439 c 0.35,0 0.557812,0.3882812 0.363672,0.6808594 z M 6.25,4.5 h 3.5 C 9.8539063,4.5683594 9.9714844,4.6449219 10.105469,4.7296875 11.655859,5.7222656 15,7.8605469 15,12.375 15,13.824219 13.824219,15 12.375,15 H 3.625 C 2.1757812,15 1,13.824219 1,12.375 1,7.8605469 4.3441406,5.7222656 5.8945312,4.7296875 v 0 0 C 6.0257813,4.6449219 6.1460937,4.5683594 6.25,4.5 Z"
     inkscape:label="path1"
     sodipodi:nodetypes="sssssssssscccsscccccssssscsc" /></svg>
