<?xml version="1.0" encoding="UTF-8" standalone="no"?>
<svg
   viewBox="0 0 16 16"
   version="1.1"
   id="svg1"
   sodipodi:docname="pickup_3d.svg"
   width="16"
   height="16"
   xml:space="preserve"
   inkscape:version="1.3.2 (091e20e, 2023-11-25, custom)"
   xmlns:inkscape="http://www.inkscape.org/namespaces/inkscape"
   xmlns:sodipodi="http://sodipodi.sourceforge.net/DTD/sodipodi-0.dtd"
   xmlns="http://www.w3.org/2000/svg"
   xmlns:svg="http://www.w3.org/2000/svg"><defs
     id="defs1"><inkscape:path-effect
       effect="fillet_chamfer"
       id="path-effect3"
       is_visible="true"
       lpeversion="1"
       nodesatellites_param="F,0,0,1,0,0,0,1 @ F,0,0,1,0,0,0,1 @ F,0,0,1,0,0,0,1 @ F,0,0,1,0,0,0,1 @ F,0,0,1,0,0,0,1 @ F,0,0,1,0,0,0,1 @ F,0,0,1,0,0,0,1 @ F,0,0,1,0,0,0,1 | F,0,0,1,0,0,0,1 @ F,0,0,1,0,0,0,1 @ F,0,0,1,0,0,0,1 @ F,0,0,1,0,0,0,1 @ F,0,0,1,0,0,0,1 @ F,0,0,1,0,0,0,1 @ F,0,0,1,0,0,0,1 @ F,0,0,1,0,0,0,1 @ F,0,0,1,0,0,0,1 @ F,0,0,1,0,0,0,1"
       radius="0"
       unit="px"
       method="auto"
       mode="F"
       chamfer_steps="1"
       flexible="false"
       use_knot_distance="true"
       apply_no_radius="true"
       apply_with_radius="true"
       only_selected="false"
       hide_knots="false" /><inkscape:path-effect
       effect="fillet_chamfer"
       id="path-effect1"
       is_visible="true"
       lpeversion="1"
       nodesatellites_param="F,0,0,1,0,0,0,1 @ F,0,0,1,0,0,0,1 @ F,0,0,1,0,0,0,1 @ F,0,0,1,0,0,0,1 @ F,0,0,1,0,0,0,1 @ F,0,0,1,0,0,0,1 @ F,0,0,1,0,0,0,1 @ F,0,0,1,0,0,0,1 | F,0,0,1,0,0,0,1 @ F,0,0,1,0,0,0,1 @ F,0,0,1,0,0,0,1 @ F,0,0,1,0,0,0,1 @ F,0,0,1,0,0,0,1 @ F,0,0,1,0,0,0,1 @ F,0,0,1,0,0,0,1 @ F,0,0,1,0,0,0,1 @ F,0,0,1,0,0,0,1 @ F,0,0,1,0,0,0,1"
       radius="0"
       unit="px"
       method="auto"
       mode="F"
       chamfer_steps="1"
       flexible="false"
       use_knot_distance="true"
       apply_no_radius="true"
       apply_with_radius="true"
       only_selected="false"
       hide_knots="false" /></defs><sodipodi:namedview
     id="namedview1"
     pagecolor="#505050"
     bordercolor="#ffffff"
     borderopacity="1"
     inkscape:showpageshadow="0"
     inkscape:pageopacity="0"
     inkscape:pagecheckerboard="1"
     inkscape:deskcolor="#505050"
     inkscape:zoom="22.936776"
     inkscape:cx="4.6867964"
     inkscape:cy="9.3953919"
     inkscape:window-width="1366"
     inkscape:window-height="697"
     inkscape:window-x="-8"
     inkscape:window-y="-8"
     inkscape:window-maximized="1"
     inkscape:current-layer="svg1" /><!--!Font Awesome Free 6.5.1 by @fontawesome - https://fontawesome.com License - https://fontawesome.com/license/free Copyright 2024 Fonticons, Inc.--><path
     id="path1-7"
     d="M 8.0001435,2.0033709 C 5.1988817,1.8915113 2.554688,4.5821876 2.8061685,7.3045256 c 0.5675509,-0.00486 1.1353726,-0.00706 1.7028152,0.00855 -0.1774445,-2.5246289 2.826246,-4.3672447 5.0081397,-3.2138145 1.2645556,0.5328852 1.9722306,1.9990192 2.0254296,3.2163973 0.565516,-0.039645 1.13241,3.244e-4 1.698613,-0.011131 C 13.312495,4.9540406 11.588064,2.7139064 9.3043784,2.1682525 8.8788341,2.0588482 8.4395068,2.0033083 8.0001435,2.0033709 Z m -6.940666,6.1228934 c -0.0938862,1.1108931 -0.03557,2.2287367 -0.051898,3.3429077 -0.0937369,0.952596 0.6947141,1.879769 1.658293,1.903007 3.5561133,0.0038 7.1124281,0.0038 10.6685425,0 0.960252,-0.02345 1.750233,-0.945784 1.658293,-1.896587 -0.01254,-1.090937 0.03225,-2.1837546 -0.03947,-3.2729677 l -0.01243,-0.07636 m -1.94208,0 c -0.545826,0.017053 -1.098387,-0.037324 -1.639259,0.033698 -0.531714,0.1442 -0.642965,0.7289361 -0.887789,1.1453022 C 10.318121,9.7239302 9.862431,9.92941 9.4381143,9.8756624 8.3699945,9.870026 7.3008861,9.8869865 6.233389,9.8670938 5.75538,9.8255711 5.5499231,9.3695369 5.3742087,8.9907779 5.2058397,8.6163011 4.9888292,8.1776505 4.5252065,8.1349451 4.0180555,8.1155385 2.4937451,8.1262643 3.0015529,8.1262643 Z"
     style="stroke-width:0.874385;fill:#fc7f7f;fill-opacity:1" /></svg>
