<?xml version="1.0" encoding="UTF-8" standalone="no"?>
<svg
   viewBox="0 0 16 16"
   version="1.1"
   id="svg1"
   sodipodi:docname="saver_ui.svg"
   width="16"
   height="16"
   inkscape:version="1.3.2 (091e20e, 2023-11-25, custom)"
   xmlns:inkscape="http://www.inkscape.org/namespaces/inkscape"
   xmlns:sodipodi="http://sodipodi.sourceforge.net/DTD/sodipodi-0.dtd"
   xmlns="http://www.w3.org/2000/svg"
   xmlns:svg="http://www.w3.org/2000/svg">
  <defs
     id="defs1" />
  <sodipodi:namedview
     id="namedview1"
     pagecolor="#505050"
     bordercolor="#ffffff"
     borderopacity="1"
     inkscape:showpageshadow="0"
     inkscape:pageopacity="0"
     inkscape:pagecheckerboard="1"
     inkscape:deskcolor="#505050"
     inkscape:zoom="7.828125"
     inkscape:cx="13.988024"
     inkscape:cy="27.401198"
     inkscape:window-width="1366"
     inkscape:window-height="697"
     inkscape:window-x="-8"
     inkscape:window-y="-8"
     inkscape:window-maximized="1"
     inkscape:current-layer="svg1" />
  <!--!Font Awesome Free 6.5.1 by @fontawesome - https://fontawesome.com License - https://fontawesome.com/license/free Copyright 2024 Fonticons, Inc.-->
  <path
     d="M 3,1 C 1.896875,1 1,1.896875 1,3 v 10 c 0,1.103125 0.896875,2 2,2 h 10 c 1.103125,0 2,-0.896875 2,-2 V 5.415625 C 15,4.884375 14.790625,4.375 14.415625,4 L 12,1.584375 C 11.625,1.209375 11.115625,1 10.584375,1 Z M 3,4 C 3,3.446875 3.446875,3 4,3 H 9.9999998 C 10.553125,3 11,3.446875 11,4 V 6 C 11,6.553125 10.553125,7 9.9999998,7 H 4 C 3.446875,7 3,6.553125 3,6 Z m 5,5 a 2.0000001,2.0000001 0 1 1 0,4 2.0000001,2.0000001 0 1 1 0,-4 z"
     id="path1"
     style="stroke-width:0.03125;fill:#8eef97;fill-opacity:1" />
</svg>
