<?xml version="1.0" encoding="UTF-8" standalone="no"?>
<svg
   viewBox="0 0 16 16"
   version="1.1"
   id="svg1"
   sodipodi:docname="saver_3d.svg"
   width="16"
   height="16"
   inkscape:version="1.3.2 (091e20e, 2023-11-25, custom)"
   xml:space="preserve"
   xmlns:inkscape="http://www.inkscape.org/namespaces/inkscape"
   xmlns:sodipodi="http://sodipodi.sourceforge.net/DTD/sodipodi-0.dtd"
   xmlns="http://www.w3.org/2000/svg"
   xmlns:svg="http://www.w3.org/2000/svg"><defs
     id="defs1" /><sodipodi:namedview
     id="namedview1"
     pagecolor="#505050"
     bordercolor="#ffffff"
     borderopacity="1"
     inkscape:showpageshadow="0"
     inkscape:pageopacity="0"
     inkscape:pagecheckerboard="1"
     inkscape:deskcolor="#505050"
     inkscape:zoom="62.625"
     inkscape:cx="6.3153693"
     inkscape:cy="10.003992"
     inkscape:window-width="1366"
     inkscape:window-height="697"
     inkscape:window-x="-8"
     inkscape:window-y="-8"
     inkscape:window-maximized="1"
     inkscape:current-layer="svg1" /><!--!Font Awesome Free 6.5.1 by @fontawesome - https://fontawesome.com License - https://fontawesome.com/license/free Copyright 2024 Fonticons, Inc.--><path
     id="path1"
     style="fill:#fc7f7f;fill-opacity:1;stroke-width:0.0267857"
     d="M 2.7148438 1 C 1.769309 1 1 1.769309 1 2.7148438 L 1 11.285156 C 1 12.230691 1.769309 13 2.7148438 13 L 9.6855469 13 C 9.6584272 12.960117 9.6302409 12.920948 9.6035156 12.880859 C 9.0928006 12.114776 8.638842 11.293103 8.5078125 10.378906 A 1.7142858 1.7142858 0 0 1 7 11.285156 A 1.7142858 1.7142858 0 1 1 7 7.8574219 A 1.7142858 1.7142858 0 0 1 8.5703125 8.9199219 C 8.7203434 8.2572109 9.0325709 7.6666479 9.4902344 7.2089844 C 10.154567 6.5446512 11.100777 6.1875 12.138672 6.1875 C 12.435137 6.1875 12.723056 6.2181653 13 6.2753906 L 13 4.7851562 C 13 4.3297996 12.821429 3.8936938 12.5 3.5722656 L 10.427734 1.5 C 10.106307 1.1785717 9.6702004 1 9.2148438 1 L 2.7148438 1 z M 3.5722656 2.7148438 L 8.7148438 2.7148438 C 9.1889507 2.7148438 9.5722656 3.0981589 9.5722656 3.5722656 L 9.5722656 5.2851562 C 9.5722656 5.7592629 9.1889507 6.1425781 8.7148438 6.1425781 L 3.5722656 6.1425781 C 3.0981589 6.1425781 2.7148437 5.7592629 2.7148438 5.2851562 L 2.7148438 3.5722656 C 2.7148438 3.0981589 3.0981589 2.7148437 3.5722656 2.7148438 z M 12.138672 9.2421875 C 11.801153 9.2421875 11.523438 9.519903 11.523438 9.8574219 C 11.523437 10.194941 11.801154 10.472656 12.138672 10.472656 C 12.476191 10.472656 12.753906 10.194942 12.753906 9.8574219 C 12.753906 9.5199017 12.476192 9.2421875 12.138672 9.2421875 z " /><path
     id="path1-4"
     d="m 15.728545,8.4475005 c -1.833875,0 -3.056462,1.2225869 -3.056462,3.0564605 0,1.833876 1.833879,3.667757 3.056462,5.501631 1.222584,-1.833874 3.060741,-3.686094 3.056462,-5.501631 0,-1.8338736 -1.222586,-3.0564605 -3.056462,-3.0564605 z m 0,1.5282309 c 0.838081,0 1.528232,0.6901486 1.528232,1.5282296 0,0.838081 -0.690151,1.528232 -1.528232,1.528232 -0.83808,0 -1.528231,-0.690151 -1.528231,-1.528232 0,-0.838081 0.690151,-1.5282296 1.528231,-1.5282296 z"
     style="clip-rule:evenodd;display:inline;fill:#e0e0e0;fill-opacity:1;fill-rule:evenodd;stroke-width:0.611292;stroke-linejoin:round;stroke-miterlimit:2"
     transform="matrix(0.93478786,0,0,0.93478786,-2.5647093,-0.89662091)"
     inkscape:label="pin" /></svg>
