<?xml version="1.0" encoding="UTF-8" standalone="no"?>
<svg
   viewBox="0 0 16 16"
   version="1.1"
   id="svg1"
   sodipodi:docname="spawner_3d.svg"
   width="16"
   height="16"
   inkscape:version="1.3.2 (091e20e, 2023-11-25, custom)"
   xmlns:inkscape="http://www.inkscape.org/namespaces/inkscape"
   xmlns:sodipodi="http://sodipodi.sourceforge.net/DTD/sodipodi-0.dtd"
   xmlns="http://www.w3.org/2000/svg"
   xmlns:svg="http://www.w3.org/2000/svg">
  <defs
     id="defs1" />
  <sodipodi:namedview
     id="namedview1"
     pagecolor="#505050"
     bordercolor="#ffffff"
     borderopacity="1"
     inkscape:showpageshadow="0"
     inkscape:pageopacity="0"
     inkscape:pagecheckerboard="1"
     inkscape:deskcolor="#505050"
     inkscape:zoom="22.936776"
     inkscape:cx="9.9621672"
     inkscape:cy="10.267354"
     inkscape:window-width="1366"
     inkscape:window-height="697"
     inkscape:window-x="-8"
     inkscape:window-y="-8"
     inkscape:window-maximized="1"
     inkscape:current-layer="svg1" />
  <!--!Font Awesome Free 6.5.1 by @fontawesome - https://fontawesome.com License - https://fontawesome.com/license/free Copyright 2024 Fonticons, Inc.-->
  <path
     d="m 9.7517098,2.7503421 a 1.7503421,1.7503421 0 1 0 -3.5006842,0 1.7503421,1.7503421 0 1 0 3.5006842,0 z M 7.1261966,5.375855 c -0.965423,0 -1.7503419,0.7849189 -1.7503419,1.7503418 v 1.3127564 c 0,0.4840789 0.391092,0.8751709 0.8751709,0.8751709 h 0.049228 l 0.3035749,2.7212339 c 0.049228,0.443056 0.4239109,0.779449 0.8697011,0.779449 h 1.0584098 c 0.4457902,0 0.8204728,-0.336393 0.8697012,-0.779449 L 9.7024809,9.3141241 h 0.049228 c 0.4840801,0 0.8751701,-0.391092 0.8751701,-0.8751709 V 7.1261968 c 0,-0.9654229 -0.7849182,-1.7503418 -1.7503384,-1.7503418 z M 4.6182849,11.781012 C 4.973823,11.715374 5.2117601,11.373511 5.1461223,11.017972 5.0804844,10.662435 4.7386208,10.424498 4.3830827,10.490135 3.4969721,10.651494 2.717523,10.878492 2.1404571,11.168393 1.8532917,11.313342 1.5852706,11.488377 1.3801524,11.704434 1.1750342,11.925962 1,12.226802 1,12.596015 c 0,0.58527 0.4239109,0.987302 0.7958586,1.230709 0.4020316,0.262552 0.9380738,0.47314 1.5424888,0.639969 1.2225043,0.336394 2.8689196,0.536042 4.66302,0.536042 1.7941002,0 3.4405156,-0.199648 4.6602856,-0.536042 0.604415,-0.166829 1.143192,-0.377417 1.542488,-0.639969 C 14.578824,13.583317 15,13.181285 15,12.596015 c 0,-0.369213 -0.175034,-0.670053 -0.382887,-0.891581 -0.205118,-0.216057 -0.473139,-0.391092 -0.760305,-0.536041 -0.574331,-0.289901 -1.35378,-0.516899 -2.242626,-0.678258 -0.355538,-0.06563 -0.697401,0.1723 -0.763039,0.527837 -0.06564,0.355539 0.172299,0.697402 0.527838,0.76304 0.825942,0.15042 1.468646,0.350069 1.887087,0.560657 0.08752,0.04376 0.158624,0.08478 0.216057,0.12307 0.09846,0.06564 0.09846,0.196914 0,0.262552 -0.240672,0.155889 -0.631764,0.322719 -1.17601,0.473139 -1.06935,0.298105 -2.5954294,0.489549 -4.3047475,0.489549 -1.7093182,0 -3.2353976,-0.191444 -4.3129518,-0.489549 -0.5442469,-0.15042 -0.9353389,-0.31725 -1.1760109,-0.473139 -0.098457,-0.06564 -0.098457,-0.196914 0,-0.262552 0.057433,-0.03829 0.1312756,-0.07931 0.2160578,-0.12307 0.4184411,-0.210588 1.0611448,-0.407502 1.8870873,-0.560657 z"
     id="path1"
     style="stroke-width:0.0273491;fill:#fc7f7f;fill-opacity:1" />
</svg>
