<?xml version="1.0" encoding="UTF-8" standalone="no"?>
<svg
   height="16"
   viewBox="0 0 16 16"
   width="16"
   version="1.1"
   id="svg1"
   sodipodi:docname="triangle.svg"
   inkscape:version="1.3.2 (091e20e, 2023-11-25, custom)"
   xml:space="preserve"
   xmlns:inkscape="http://www.inkscape.org/namespaces/inkscape"
   xmlns:sodipodi="http://sodipodi.sourceforge.net/DTD/sodipodi-0.dtd"
   xmlns="http://www.w3.org/2000/svg"
   xmlns:svg="http://www.w3.org/2000/svg"><defs
     id="defs1"><inkscape:path-effect
       effect="fillet_chamfer"
       id="path-effect9"
       is_visible="true"
       lpeversion="1"
       nodesatellites_param="F,0,0,1,0,2,0,1 @ F,0,0,1,0,2,0,1 @ F,0,0,1,0,2,0,1 | F,0,0,1,0,2,0,1 @ F,0,0,1,0,2,0,1 @ F,0,0,1,0,2,0,1"
       radius="0"
       unit="px"
       method="auto"
       mode="F"
       chamfer_steps="1"
       flexible="false"
       use_knot_distance="true"
       apply_no_radius="true"
       apply_with_radius="true"
       only_selected="false"
       hide_knots="false" /><inkscape:path-effect
       effect="fillet_chamfer"
       id="path-effect7"
       is_visible="true"
       lpeversion="1"
       nodesatellites_param="F,0,0,1,0,2,0,1 @ F,0,0,1,0,2,0,1 @ F,0,0,1,0,2,0,1"
       radius="0"
       unit="px"
       method="auto"
       mode="F"
       chamfer_steps="1"
       flexible="false"
       use_knot_distance="true"
       apply_no_radius="true"
       apply_with_radius="true"
       only_selected="false"
       hide_knots="false" /><inkscape:path-effect
       effect="fillet_chamfer"
       id="path-effect6"
       is_visible="true"
       lpeversion="1"
       nodesatellites_param="F,0,0,1,0,0,0,1 @ F,0,0,1,0,2.1400199,0,1 @ F,0,0,1,0,0,0,1"
       radius="0"
       unit="px"
       method="auto"
       mode="F"
       chamfer_steps="1"
       flexible="false"
       use_knot_distance="true"
       apply_no_radius="true"
       apply_with_radius="true"
       only_selected="false"
       hide_knots="false" /></defs><sodipodi:namedview
     id="namedview1"
     pagecolor="#505050"
     bordercolor="#ffffff"
     borderopacity="1"
     inkscape:showpageshadow="0"
     inkscape:pageopacity="0"
     inkscape:pagecheckerboard="1"
     inkscape:deskcolor="#505050"
     inkscape:zoom="32"
     inkscape:cx="5.609375"
     inkscape:cy="7.953125"
     inkscape:window-width="1366"
     inkscape:window-height="697"
     inkscape:window-x="-8"
     inkscape:window-y="-8"
     inkscape:window-maximized="1"
     inkscape:current-layer="svg1" /><path
     d="M 0.88388352,0.05460184 A 6,6 0 0 0 -5.1161165,6.0546019 6,6 0 0 0 0.88388352,12.054601 6,6 0 0 0 6.8838837,6.0546019 6,6 0 0 0 0.88388352,0.05460184 Z m 0,2.00000006 a 4,4 0 0 1 3.99999998,4 4,4 0 0 1 -3.99999998,3.9999991 4,4 0 0 1 -4.00000002,-3.9999991 4,4 0 0 1 4.00000002,-4 z"
     fill="#e0e0e0"
     id="path1"
     style="display:none" /><path
     id="path7"
     style="display:inline;opacity:1;fill:#e0e0e0;fill-opacity:1;fill-rule:evenodd;stroke:none;stroke-width:2.00129;stroke-linejoin:round;stroke-dasharray:none;stroke-opacity:1"
     transform="matrix(0.89084314,0,0,0.87195482,0.87325531,1.3910581)"
     inkscape:path-effect="#path-effect9"
     inkscape:original-d="M 12.999416,12.999354 7.9999999,3.0005214 3.0005832,12.999354 Z M 15.499124,14.460545 7.9999999,-0.53770392 0.500875,14.460545 Z"
     d="M 12.104989,11.2105 8.8944271,4.7893758 a 1,1 1.3752592e-6 0 0 -1.7888544,0 L 3.8950104,11.2105 a 1.2360679,1.2360679 58.282527 0 0 1.1055728,1.788854 H 10.999416 A 1.236068,1.236068 121.71747 0 0 12.104989,11.2105 Z M 14.604697,12.671691 8.8944271,1.2511505 a 1,1 1.2224527e-6 0 0 -1.7888544,-1e-7 L 1.3953022,12.671691 a 1.2360679,1.2360679 58.282526 0 0 1.1055728,1.788854 h 10.998249 a 1.236068,1.236068 121.71747 0 0 1.105573,-1.788854 z" /></svg>
